# Blender 4.5.3 LTS
# www.blender.org
mtllib npc.mtl
o Sphere.001
v 0.230933 0.342576 -0.000000
v 0.250051 0.316263 -0.000000
v 0.250051 0.283737 -0.000000
v 0.230933 0.257424 -0.000000
v 0.219287 0.342576 0.024185
v 0.231206 0.316263 0.039131
v 0.231206 0.283737 0.039131
v 0.219287 0.257424 0.024185
v 0.193117 0.342576 0.030158
v 0.188863 0.316263 0.048796
v 0.188863 0.283737 0.048796
v 0.193117 0.257424 0.030158
v 0.172130 0.342576 0.013421
v 0.154906 0.316263 0.021716
v 0.154906 0.283737 0.021716
v 0.172130 0.257424 0.013421
v 0.200000 0.352627 -0.000000
v 0.172130 0.342576 -0.013421
v 0.154906 0.316263 -0.021716
v 0.154906 0.283737 -0.021716
v 0.172130 0.257424 -0.013421
v 0.200000 0.247373 -0.000000
v 0.193117 0.342576 -0.030158
v 0.188863 0.316263 -0.048796
v 0.188863 0.283737 -0.048796
v 0.193117 0.257424 -0.030158
v 0.219287 0.342576 -0.024185
v 0.231206 0.316263 -0.039131
v 0.231206 0.283737 -0.039131
v 0.219287 0.257424 -0.024185
v 0.082290 0.713262 -0.000000
v 0.133148 0.643262 -0.000000
v 0.133148 0.556738 -0.000000
v 0.082290 0.486738 -0.000000
v 0.051307 0.713262 0.064337
v 0.083016 0.643262 0.104099
v 0.083016 0.556738 0.104099
v 0.051307 0.486738 0.064337
v -0.018311 0.713262 0.080227
v -0.029628 0.643262 0.129810
v -0.029628 0.556738 0.129810
v -0.018311 0.486738 0.080227
v -0.074141 0.713262 0.035704
v -0.119962 0.643262 0.057771
v -0.119962 0.556738 0.057771
v -0.074141 0.486738 0.035704
v 0.000000 0.740000 -0.000000
v -0.074141 0.713262 -0.035704
v -0.119962 0.643262 -0.057771
v -0.119962 0.556738 -0.057771
v -0.074141 0.486738 -0.035704
v 0.000000 0.460000 -0.000000
v -0.018311 0.713262 -0.080227
v -0.029628 0.643262 -0.129810
v -0.029628 0.556738 -0.129810
v -0.018311 0.486738 -0.080227
v 0.051307 0.713262 -0.064337
v 0.083016 0.643262 -0.104099
v 0.083016 0.556738 -0.104099
v 0.051307 0.486738 -0.064337
v 0.130000 0.050000 -0.000000
v 0.079303 0.441317 -0.000000
v 0.117126 0.050000 0.056405
v 0.071450 0.441317 0.034408
v 0.081054 0.050000 0.101638
v 0.049445 0.441317 0.062002
v 0.028928 0.050000 0.126741
v 0.017647 0.441317 0.077315
v -0.028928 0.050000 0.126741
v -0.017647 0.441317 0.077315
v -0.081054 0.050000 0.101638
v -0.049445 0.441317 0.062002
v -0.117126 0.050000 0.056405
v -0.071450 0.441317 0.034408
v -0.130000 0.050000 0.000000
v -0.079303 0.441317 0.000000
v -0.117126 0.050000 -0.056405
v -0.071450 0.441317 -0.034408
v -0.081054 0.050000 -0.101638
v -0.049445 0.441317 -0.062002
v -0.028928 0.050000 -0.126741
v -0.017647 0.441317 -0.077315
v 0.028928 0.050000 -0.126741
v 0.017647 0.441317 -0.077315
v 0.081054 0.050000 -0.101638
v 0.049445 0.441317 -0.062002
v 0.117126 0.050000 -0.056405
v 0.071450 0.441317 -0.034408
v -0.169067 0.342576 0.000000
v -0.149949 0.316263 0.000000
v -0.149949 0.283737 0.000000
v -0.169067 0.257424 0.000000
v -0.180713 0.342576 0.024185
v -0.168794 0.316263 0.039131
v -0.168794 0.283737 0.039131
v -0.180713 0.257424 0.024185
v -0.206883 0.342576 0.030158
v -0.211137 0.316263 0.048796
v -0.211137 0.283737 0.048796
v -0.206883 0.257424 0.030158
v -0.227870 0.342576 0.013421
v -0.245094 0.316263 0.021716
v -0.245094 0.283737 0.021716
v -0.227870 0.257424 0.013421
v -0.200000 0.352627 0.000000
v -0.227870 0.342576 -0.013421
v -0.245094 0.316263 -0.021716
v -0.245094 0.283737 -0.021716
v -0.227870 0.257424 -0.013421
v -0.200000 0.247373 0.000000
v -0.206883 0.342576 -0.030158
v -0.211137 0.316263 -0.048796
v -0.211137 0.283737 -0.048796
v -0.206883 0.257424 -0.030158
v -0.180713 0.342576 -0.024185
v -0.168794 0.316263 -0.039131
v -0.168794 0.283737 -0.039131
v -0.180713 0.257424 -0.024185
vn 0.7538 -0.5477 0.3630
vn 0.7538 0.5477 0.3630
vn 0.3057 -0.9407 0.1472
vn 0.9010 -0.0000 0.4339
vn 0.3057 0.9407 0.1472
vn 0.0755 0.9407 0.3307
vn 0.1862 -0.5477 0.8157
vn 0.1862 0.5477 0.8157
vn 0.0755 -0.9407 0.3307
vn 0.2225 -0.0000 0.9749
vn -0.2115 0.9407 0.2652
vn -0.5217 -0.5477 0.6541
vn -0.5217 0.5477 0.6541
vn -0.2115 -0.9407 0.2652
vn -0.6235 -0.0000 0.7818
vn -0.3393 0.9407 -0.0000
vn -0.8367 -0.5477 -0.0000
vn -0.8367 0.5477 -0.0000
vn -0.3393 -0.9407 -0.0000
vn -1.0000 -0.0000 -0.0000
vn -0.2115 0.9407 -0.2652
vn -0.5217 -0.5477 -0.6541
vn -0.5217 0.5477 -0.6541
vn -0.2115 -0.9407 -0.2652
vn -0.6235 -0.0000 -0.7818
vn 0.0755 0.9407 -0.3307
vn 0.1862 -0.5477 -0.8157
vn 0.1862 0.5477 -0.8157
vn 0.0755 -0.9407 -0.3307
vn 0.2225 -0.0000 -0.9749
vn 0.3057 0.9407 -0.1472
vn 0.7538 -0.5477 -0.3630
vn 0.7538 0.5477 -0.3630
vn 0.3057 -0.9407 -0.1472
vn 0.9010 -0.0000 -0.4339
vn 0.9672 0.1253 0.2208
vn 0.7757 0.1253 0.6186
vn 0.4305 0.1253 0.8939
vn -0.0000 0.1253 0.9921
vn -0.4305 0.1253 0.8939
vn -0.7757 0.1253 0.6186
vn -0.9672 0.1253 0.2208
vn -0.9672 0.1253 -0.2208
vn -0.7757 0.1253 -0.6186
vn -0.4305 0.1253 -0.8939
vn -0.0000 0.1253 -0.9921
vn 0.4305 0.1253 -0.8939
vn -0.0000 1.0000 -0.0000
vn 0.7757 0.1253 -0.6186
vn 0.9672 0.1253 -0.2208
vn -0.0000 -1.0000 -0.0000
vn 0.7539 -0.5477 -0.3630
vn 0.7539 0.5477 0.3630
vt 0.043864 0.944364
vt 0.079733 0.970299
vt 0.052331 0.970299
vt 0.052331 0.883486
vt 0.088200 0.911205
vt 0.043864 0.911205
vt 0.067313 0.800148
vt 0.035736 0.800148
vt 0.047625 0.775460
vt 0.088200 0.944364
vt 0.952360 0.811518
vt 0.945333 0.780733
vt 0.973783 0.794434
vt 0.973783 0.767032
vt 0.078682 0.750336
vt 0.074339 0.769362
vt 0.787342 0.363090
vt 0.816148 0.354473
vt 0.814389 0.382116
vt 0.849307 0.354473
vt 0.847548 0.382116
vt 0.952360 0.749948
vt 0.875241 0.318604
vt 0.875241 0.346005
vt 0.788429 0.346005
vt 0.816148 0.310136
vt 0.095763 0.786447
vt 0.849307 0.310136
vt 0.925645 0.756045
vt 0.113346 0.822316
vt 0.095763 0.813849
vt 0.788429 0.318604
vt 0.814389 0.282493
vt 0.847549 0.282493
vt 0.913756 0.780733
vt 0.074339 0.830933
vt 0.139667 0.882400
vt 0.148284 0.911205
vt 0.120640 0.909446
vt 0.148284 0.944364
vt 0.120640 0.942606
vt 0.925645 0.805421
vt 0.184153 0.970298
vt 0.156751 0.970298
vt 0.184153 0.883486
vt 0.192620 0.911205
vt 0.047625 0.824836
vt 0.192620 0.944364
vt 0.035457 0.840094
vt 0.035246 0.882400
vt 0.016220 0.909446
vt 0.016220 0.942606
vt 0.860881 0.181060
vt 0.956301 0.250053
vt 0.883406 0.250053
vt 0.883406 0.019111
vt 0.978827 0.092848
vt 0.860881 0.092848
vt 0.429876 0.584996
vt 0.354192 0.621443
vt 0.354192 0.548549
vt 0.978827 0.181060
vt 0.691028 0.868291
vt 0.615344 0.831844
vt 0.691028 0.795397
vt 0.634037 0.749947
vt 0.307417 0.526023
vt 0.411184 0.503100
vt 0.598235 0.666892
vt 0.674864 0.643969
vt 0.670186 0.717507
vt 0.763076 0.643969
vt 0.758398 0.717507
vt 0.562970 0.766168
vt 0.832068 0.548549
vt 0.832068 0.621443
vt 0.601126 0.621443
vt 0.674864 0.526023
vt 0.482251 0.519320
vt 0.763076 0.526023
vt 0.531342 0.831844
vt 0.565795 0.584996
vt 0.513879 0.584996
vt 0.601126 0.548549
vt 0.670186 0.452485
vt 0.758398 0.452485
vt 0.562970 0.897520
vt 0.514620 0.691262
vt 0.482251 0.650672
vt 0.307417 0.821898
vt 0.403481 0.752838
vt 0.380955 0.826576
vt 0.380955 0.914788
vt 0.307417 0.910110
vt 0.634037 0.913740
vt 0.476376 0.983780
vt 0.403481 0.983780
vt 0.498902 0.826576
vt 0.411184 0.666892
vt 0.498902 0.914788
vt 0.307417 0.643969
vt 0.787342 0.088171
vt 0.787342 0.176383
vt 0.616024 0.017360
vt 0.651149 0.419339
vt 0.593570 0.418672
vt 0.686273 0.017360
vt 0.708728 0.418672
vt 0.754902 0.416804
vt 0.061316 0.016220
vt 0.062370 0.418711
vt 0.016220 0.416309
vt 0.089469 0.017686
vt 0.119937 0.420044
vt 0.124586 0.018499
vt 0.177520 0.420044
vt 0.159713 0.018499
vt 0.223713 0.418711
vt 0.187892 0.017686
vt 0.249368 0.416309
vt 0.281808 0.416309
vt 0.343284 0.017686
vt 0.307462 0.418711
vt 0.353655 0.420044
vt 0.406589 0.018499
vt 0.411238 0.420044
vt 0.468805 0.418711
vt 0.723468 0.848915
vt 0.802392 0.749947
vt 0.881316 0.848915
vt 0.469859 0.016220
vt 0.514955 0.416309
vt 0.587857 0.016220
vt 0.547395 0.416804
vt 0.274977 0.555660
vt 0.249352 0.667931
vt 0.041845 0.667931
vt 0.892151 0.646513
vt 0.928020 0.672447
vt 0.900619 0.672447
vt 0.900619 0.585635
vt 0.936488 0.613353
vt 0.892151 0.613353
vt 0.191819 0.800148
vt 0.163369 0.813848
vt 0.163369 0.786447
vt 0.936488 0.646513
vt 0.973783 0.888444
vt 0.945333 0.874744
vt 0.973783 0.861043
vt 0.952360 0.843958
vt 0.180450 0.750336
vt 0.184792 0.769362
vt 0.864508 0.533082
vt 0.893313 0.524465
vt 0.891555 0.552108
vt 0.926472 0.524465
vt 0.924714 0.552108
vt 0.925645 0.850056
vt 0.952407 0.488596
vt 0.952407 0.515997
vt 0.865595 0.488596
vt 0.893313 0.480128
vt 0.211507 0.775460
vt 0.926472 0.480128
vt 0.913756 0.874744
vt 0.242912 0.800148
vt 0.223396 0.800148
vt 0.891555 0.452485
vt 0.924714 0.452485
vt 0.925645 0.899432
vt 0.211507 0.824836
vt 0.907682 0.309539
vt 0.943793 0.283579
vt 0.935325 0.311298
vt 0.935325 0.344457
vt 0.907682 0.342699
vt 0.952360 0.905529
vt 0.971194 0.370392
vt 0.943793 0.370392
vt 0.971194 0.283579
vt 0.979662 0.311298
vt 0.184792 0.830933
vt 0.979662 0.344457
vt 0.180450 0.849959
vt 0.883534 0.584548
vt 0.864508 0.611595
vt 0.864508 0.644754
vt 0.079733 0.883486
vt 0.035457 0.760202
vt 0.113346 0.777979
vt 0.787342 0.301519
vt 0.078682 0.849959
vt 0.156751 0.883486
vt 0.016220 0.800148
vt 0.956301 0.019111
vt 0.399631 0.452485
vt 0.514620 0.478730
vt 0.598235 0.503099
vt 0.358032 0.749947
vt 0.476376 0.752838
vt 0.399631 0.717507
vt 0.837957 0.016220
vt 0.651149 0.017766
vt 0.714441 0.016220
vt 0.203542 0.016220
vt 0.327634 0.016220
vt 0.371462 0.018499
vt 0.441707 0.017686
vt 0.837517 0.903838
vt 0.802392 0.911855
vt 0.767268 0.903838
vt 0.739100 0.881375
vt 0.723468 0.812887
vt 0.739100 0.780427
vt 0.767268 0.757964
vt 0.837517 0.757964
vt 0.865684 0.780427
vt 0.881316 0.812887
vt 0.865684 0.881375
vt 0.203177 0.704754
vt 0.145599 0.717896
vt 0.088020 0.704754
vt 0.016220 0.614720
vt 0.088020 0.465627
vt 0.016220 0.555660
vt 0.041845 0.502450
vt 0.145599 0.452485
vt 0.203177 0.465627
vt 0.249352 0.502450
vt 0.274977 0.614720
vt 0.928020 0.585635
vt 0.145786 0.777979
vt 0.865595 0.515997
vt 0.223675 0.760202
vt 0.864508 0.471511
vt 0.223675 0.840094
vt 0.926708 0.282493
vt 0.145786 0.822316
s 1
usemtl Material.002
f 3/1/1 8/2/1 4/3/1
f 1/4/2 6/5/2 2/6/2
f 22/7/3 4/8/3 8/9/3
f 2/6/4 7/10/4 3/1/4
f 1/11/5 17/12/5 5/13/5
f 5/13/6 17/12/6 9/14/6
f 8/9/7 11/15/7 12/16/7
f 5/17/8 10/18/8 6/19/8
f 22/7/9 8/9/9 12/16/9
f 6/19/10 11/20/10 7/21/10
f 9/14/11 17/12/11 13/22/11
f 11/20/12 16/23/12 12/24/12
f 9/25/13 14/26/13 10/18/13
f 22/7/14 12/16/14 16/27/14
f 10/18/15 15/28/15 11/20/15
f 13/22/16 17/12/16 18/29/16
f 16/27/17 20/30/17 21/31/17
f 13/32/18 19/33/18 14/26/18
f 22/7/19 16/27/19 21/31/19
f 14/26/20 20/34/20 15/28/20
f 18/29/21 17/12/21 23/35/21
f 20/30/22 26/36/22 21/31/22
f 18/37/23 24/38/23 19/39/23
f 22/7/24 21/31/24 26/36/24
f 19/39/25 25/40/25 20/41/25
f 23/35/26 17/12/26 27/42/26
f 25/40/27 30/43/27 26/44/27
f 24/38/28 27/45/28 28/46/28
f 22/7/29 26/36/29 30/47/29
f 24/38/30 29/48/30 25/40/30
f 27/42/31 17/12/31 1/11/31
f 29/49/32 4/8/32 30/47/32
f 27/50/33 2/6/33 28/51/33
f 22/7/34 30/47/34 4/8/34
f 28/51/35 3/1/35 29/52/35
f 33/53/1 38/54/1 34/55/1
f 31/56/2 36/57/2 32/58/2
f 52/59/3 34/60/3 38/61/3
f 32/58/4 37/62/4 33/53/4
f 31/63/5 47/64/5 35/65/5
f 35/65/6 47/64/6 39/66/6
f 37/67/7 42/68/7 38/61/7
f 35/69/8 40/70/8 36/71/8
f 52/59/9 38/61/9 42/68/9
f 36/71/10 41/72/10 37/73/10
f 39/66/11 47/64/11 43/74/11
f 41/72/12 46/75/12 42/76/12
f 39/77/13 44/78/13 40/70/13
f 52/59/14 42/68/14 46/79/14
f 40/70/15 45/80/15 41/72/15
f 43/74/16 47/64/16 48/81/16
f 46/79/17 50/82/17 51/83/17
f 43/84/18 49/85/18 44/78/18
f 52/59/19 46/79/19 51/83/19
f 44/78/20 50/86/20 45/80/20
f 48/81/21 47/64/21 53/87/21
f 51/83/22 55/88/22 56/89/22
f 49/90/23 53/91/23 54/92/23
f 52/59/24 51/83/24 56/89/24
f 49/90/25 55/93/25 50/94/25
f 53/87/26 47/64/26 57/95/26
f 55/93/27 60/96/27 56/97/27
f 53/91/28 58/98/28 54/92/28
f 52/59/29 56/89/29 60/99/29
f 54/92/30 59/100/30 55/93/30
f 57/95/31 47/64/31 31/63/31
f 60/99/32 33/101/32 34/60/32
f 58/102/33 31/56/33 32/58/33
f 52/59/34 60/99/34 34/60/34
f 58/102/35 33/53/35 59/103/35
f 62/104/36 63/105/36 61/106/36
f 63/105/37 66/107/37 65/108/37
f 66/107/38 67/109/38 65/108/38
f 68/110/39 69/111/39 67/112/39
f 70/113/40 71/114/40 69/111/40
f 72/115/41 73/116/41 71/114/41
f 74/117/42 75/118/42 73/116/42
f 76/119/43 77/120/43 75/118/43
f 77/121/44 80/122/44 79/123/44
f 80/122/45 81/124/45 79/123/45
f 81/124/46 84/125/46 83/126/46
f 84/125/47 85/127/47 83/126/47
f 86/128/48 78/129/48 70/130/48
f 85/127/49 88/131/49 87/132/49
f 88/133/50 61/106/50 87/134/50
f 83/135/51 87/136/51 67/137/51
f 91/138/1 96/139/1 92/140/1
f 89/141/2 94/142/2 90/143/2
f 110/144/3 92/145/3 96/146/3
f 90/143/4 95/147/4 91/138/4
f 89/148/5 105/149/5 93/150/5
f 93/150/6 105/149/6 97/151/6
f 96/146/7 99/152/7 100/153/7
f 93/154/8 98/155/8 94/156/8
f 110/144/9 96/146/9 100/153/9
f 94/156/10 99/157/10 95/158/10
f 97/151/11 105/149/11 101/159/11
f 99/157/12 104/160/12 100/161/12
f 98/155/13 101/162/13 102/163/13
f 110/144/14 100/153/14 104/164/14
f 98/155/15 103/165/15 99/157/15
f 101/159/16 105/149/16 106/166/16
f 104/164/17 108/167/17 109/168/17
f 101/162/18 107/169/18 102/163/18
f 110/144/19 104/164/19 109/168/19
f 102/163/20 108/170/20 103/165/20
f 106/166/21 105/149/21 111/171/21
f 108/167/22 114/172/22 109/168/22
f 107/173/23 111/174/23 112/175/23
f 110/144/24 109/168/24 114/172/24
f 107/173/25 113/176/25 108/177/25
f 111/171/26 105/149/26 115/178/26
f 113/176/27 118/179/27 114/180/27
f 112/175/28 115/181/28 116/182/28
f 110/144/29 114/172/29 118/183/29
f 112/175/30 117/184/30 113/176/30
f 115/178/31 105/149/31 89/148/31
f 117/185/32 92/145/32 118/183/52
f 115/186/33 90/143/33 116/187/33
f 110/144/34 118/183/34 92/145/34
f 116/187/35 91/138/35 117/188/35
f 3/1/1 7/10/1 8/2/1
f 1/4/2 5/189/53 6/5/2
f 2/6/4 6/5/4 7/10/4
f 8/9/7 7/190/7 11/15/7
f 5/17/8 9/25/8 10/18/8
f 6/19/10 10/18/10 11/20/10
f 11/20/12 15/28/12 16/23/12
f 9/25/13 13/32/13 14/26/13
f 10/18/15 14/26/15 15/28/15
f 16/27/17 15/191/17 20/30/17
f 13/32/18 18/192/18 19/33/18
f 14/26/20 19/33/20 20/34/20
f 20/30/22 25/193/22 26/36/22
f 18/37/23 23/194/23 24/38/23
f 19/39/25 24/38/25 25/40/25
f 25/40/27 29/48/27 30/43/27
f 24/38/28 23/194/28 27/45/28
f 24/38/30 28/46/30 29/48/30
f 29/49/32 3/195/32 4/8/32
f 27/50/33 1/4/33 2/6/33
f 28/51/35 2/6/35 3/1/35
f 33/53/1 37/62/1 38/54/1
f 31/56/2 35/196/2 36/57/2
f 32/58/4 36/57/4 37/62/4
f 37/67/7 41/197/7 42/68/7
f 35/69/8 39/77/8 40/70/8
f 36/71/10 40/70/10 41/72/10
f 41/72/12 45/80/12 46/75/12
f 39/77/13 43/84/13 44/78/13
f 40/70/15 44/78/15 45/80/15
f 46/79/17 45/198/17 50/82/17
f 43/84/18 48/199/18 49/85/18
f 44/78/20 49/85/20 50/86/20
f 51/83/22 50/82/22 55/88/22
f 49/90/23 48/200/23 53/91/23
f 49/90/25 54/92/25 55/93/25
f 55/93/27 59/100/27 60/96/27
f 53/91/28 57/201/28 58/98/28
f 54/92/30 58/98/30 59/100/30
f 60/99/32 59/202/32 33/101/32
f 58/102/33 57/203/33 31/56/33
f 58/102/35 32/58/35 33/53/35
f 62/104/36 64/204/36 63/105/36
f 63/105/37 64/204/37 66/107/37
f 66/107/38 68/205/38 67/109/38
f 68/110/39 70/113/39 69/111/39
f 70/113/40 72/115/40 71/114/40
f 72/115/41 74/117/41 73/116/41
f 74/117/42 76/119/42 75/118/42
f 76/119/43 78/206/43 77/120/43
f 77/121/44 78/207/44 80/122/44
f 80/122/45 82/208/45 81/124/45
f 81/124/46 82/208/46 84/125/46
f 84/125/47 86/209/47 85/127/47
f 66/210/48 64/211/48 62/212/48
f 62/212/48 88/213/48 86/128/48
f 86/128/48 84/214/48 82/215/48
f 82/215/48 80/216/48 78/129/48
f 78/129/48 76/217/48 70/130/48
f 76/217/48 74/218/48 70/130/48
f 74/218/48 72/219/48 70/130/48
f 70/130/48 68/220/48 66/210/48
f 66/210/48 62/212/48 70/130/48
f 62/212/48 86/128/48 70/130/48
f 86/128/48 82/215/48 78/129/48
f 85/127/49 86/209/49 88/131/49
f 88/133/50 62/104/50 61/106/50
f 87/136/51 61/221/51 63/222/51
f 63/222/51 65/223/51 67/137/51
f 67/137/51 69/224/51 75/225/51
f 69/224/51 71/226/51 75/225/51
f 71/226/51 73/227/51 75/225/51
f 75/225/51 77/228/51 79/229/51
f 79/229/51 81/230/51 83/135/51
f 83/135/51 85/231/51 87/136/51
f 87/136/51 63/222/51 67/137/51
f 75/225/51 79/229/51 67/137/51
f 79/229/51 83/135/51 67/137/51
f 91/138/1 95/147/1 96/139/1
f 89/141/2 93/232/53 94/142/2
f 90/143/4 94/142/4 95/147/4
f 96/146/7 95/233/7 99/152/7
f 93/154/8 97/234/8 98/155/8
f 94/156/10 98/155/10 99/157/10
f 99/157/12 103/165/12 104/160/12
f 98/155/13 97/234/13 101/162/13
f 98/155/15 102/163/15 103/165/15
f 104/164/17 103/235/17 108/167/17
f 101/162/18 106/236/18 107/169/18
f 102/163/20 107/169/20 108/170/20
f 108/167/22 113/237/22 114/172/22
f 107/173/23 106/238/23 111/174/23
f 107/173/25 112/175/25 113/176/25
f 113/176/27 117/184/27 118/179/27
f 112/175/28 111/174/28 115/181/28
f 112/175/30 116/182/30 117/184/30
f 117/185/32 91/239/32 92/145/32
f 115/186/33 89/141/33 90/143/33
f 116/187/35 90/143/35 91/138/35
