# Blender 4.5.3 LTS
# www.blender.org
mtllib npc.mtl
o Cube
v -0.250000 0.098372 0.250000
v -0.170423 0.889737 0.107966
v -0.250000 0.098372 -0.250000
v -0.170423 0.889737 -0.107966
v 0.250000 0.098372 0.250000
v 0.170423 0.889737 0.107966
v 0.250000 0.098372 -0.250000
v 0.170423 0.889737 -0.107966
v 0.000000 0.950000 0.000000
v 0.180902 1.088195 0.131431
v -0.069097 1.088195 0.212662
v -0.223607 1.088196 0.000000
v -0.069097 1.088195 -0.212662
v 0.180902 1.088195 -0.131431
v 0.069097 1.311805 0.212662
v -0.180902 1.311805 0.131431
v -0.180902 1.311805 -0.131431
v 0.069097 1.311805 -0.212662
v 0.223607 1.311804 0.000000
v 0.000000 1.450000 0.000000
v -0.040614 0.987336 0.124999
v 0.106331 0.987336 0.077253
v 0.065717 1.068565 0.202253
v 0.212662 1.068566 0.000000
v 0.106331 0.987336 -0.077253
v -0.131432 0.987337 0.000000
v -0.172047 1.068566 0.124999
v -0.040614 0.987336 -0.124999
v -0.172047 1.068566 -0.124999
v 0.065717 1.068565 -0.202253
v 0.237764 1.200000 0.077253
v 0.237764 1.200000 -0.077253
v 0.000000 1.200000 0.250000
v 0.146946 1.200000 0.202254
v -0.237764 1.200000 0.077253
v -0.146946 1.200000 0.202254
v -0.146946 1.200000 -0.202254
v -0.237764 1.200000 -0.077253
v 0.146946 1.200000 -0.202254
v 0.000000 1.200000 -0.250000
v 0.172047 1.331434 0.124999
v -0.065717 1.331434 0.202253
v -0.212662 1.331434 0.000000
v -0.065717 1.331434 -0.202253
v 0.172047 1.331434 -0.124999
v 0.040614 1.412663 0.124999
v 0.131432 1.412663 0.000000
v -0.106331 1.412663 0.077253
v -0.106331 1.412663 -0.077253
v 0.040614 1.412663 -0.124999
v 0.400000 0.500000 0.000000
v 0.472360 0.555279 0.052572
v 0.372362 0.555279 0.085064
v 0.310558 0.555279 0.000000
v 0.372362 0.555279 -0.085064
v 0.472360 0.555279 -0.052572
v 0.427639 0.644722 0.085064
v 0.327640 0.644722 0.052572
v 0.327640 0.644722 -0.052572
v 0.427639 0.644722 -0.085064
v 0.489442 0.644722 0.000000
v 0.400000 0.700000 0.000000
v -0.400000 0.500000 0.000000
v -0.472360 0.555279 -0.052572
v -0.372362 0.555279 -0.085064
v -0.310558 0.555279 0.000000
v -0.372361 0.555279 0.085064
v -0.472360 0.555279 0.052572
v -0.427639 0.644722 -0.085064
v -0.327640 0.644722 -0.052572
v -0.327640 0.644722 0.052572
v -0.427639 0.644722 0.085064
v -0.489442 0.644722 0.000000
v -0.400000 0.700000 0.000000
vn -0.9950 0.1001 -0.0000
vn -0.0000 0.1767 -0.9843
vn 0.9950 0.1001 -0.0000
vn -0.0000 0.1767 0.9843
vn -0.0000 -1.0000 -0.0000
vn -0.0000 1.0000 -0.0000
vn 0.1024 -0.9435 0.3151
vn 0.7002 -0.6617 0.2680
vn -0.2680 -0.9435 0.1947
vn -0.2680 -0.9435 -0.1947
vn 0.1024 -0.9435 -0.3151
vn 0.9050 -0.3304 0.2680
vn 0.0247 -0.3304 0.9435
vn -0.8897 -0.3304 0.3151
vn -0.5746 -0.3304 -0.7488
vn 0.5346 -0.3304 -0.7779
vn 0.8026 -0.1256 0.5831
vn -0.3066 -0.1256 0.9435
vn -0.9921 -0.1256 -0.0000
vn -0.3066 -0.1256 -0.9435
vn 0.8026 -0.1256 -0.5831
vn 0.4089 0.6617 0.6284
vn -0.4713 0.6617 0.5831
vn -0.7002 0.6617 -0.2680
vn 0.0385 0.6617 -0.7488
vn 0.7240 0.6617 -0.1947
vn 0.2680 0.9435 -0.1947
vn 0.4911 0.7947 -0.3568
vn 0.4089 0.6617 -0.6284
vn -0.1024 0.9435 -0.3151
vn -0.1876 0.7947 -0.5773
vn -0.4713 0.6617 -0.5831
vn -0.3313 0.9435 -0.0000
vn -0.6071 0.7947 -0.0000
vn -0.7002 0.6617 0.2680
vn -0.1024 0.9435 0.3151
vn -0.1876 0.7947 0.5773
vn 0.0385 0.6617 0.7488
vn 0.2680 0.9435 0.1947
vn 0.4911 0.7947 0.3568
vn 0.7240 0.6617 0.1947
vn 0.8897 0.3304 -0.3151
vn 0.7947 0.1876 -0.5773
vn 0.5746 0.3304 -0.7488
vn -0.0247 0.3304 -0.9435
vn -0.3035 0.1876 -0.9342
vn -0.5346 0.3304 -0.7779
vn -0.9050 0.3304 -0.2680
vn -0.9822 0.1876 -0.0000
vn -0.9050 0.3304 0.2680
vn -0.5346 0.3304 0.7779
vn -0.3035 0.1876 0.9342
vn -0.0247 0.3304 0.9435
vn 0.5746 0.3304 0.7488
vn 0.7947 0.1876 0.5773
vn 0.8897 0.3304 0.3151
vn 0.3066 0.1256 -0.9435
vn 0.3035 -0.1876 -0.9342
vn 0.0247 -0.3304 -0.9435
vn -0.8026 0.1256 -0.5831
vn -0.7947 -0.1876 -0.5773
vn -0.8897 -0.3304 -0.3151
vn -0.8026 0.1256 0.5831
vn -0.7947 -0.1876 0.5773
vn -0.5746 -0.3304 0.7488
vn 0.3066 0.1256 0.9435
vn 0.3035 -0.1876 0.9342
vn 0.5346 -0.3304 0.7779
vn 0.9921 0.1256 -0.0000
vn 0.9822 -0.1876 -0.0000
vn 0.9050 -0.3304 -0.2680
vn 0.4713 -0.6617 -0.5831
vn 0.1876 -0.7947 -0.5773
vn -0.0385 -0.6617 -0.7488
vn -0.4089 -0.6617 -0.6284
vn -0.4911 -0.7947 -0.3568
vn -0.7240 -0.6617 -0.1947
vn -0.7240 -0.6617 0.1947
vn -0.4911 -0.7947 0.3568
vn -0.4089 -0.6617 0.6284
vn 0.7002 -0.6617 -0.2680
vn 0.6071 -0.7947 -0.0000
vn 0.3313 -0.9435 -0.0000
vn -0.0385 -0.6617 0.7488
vn 0.1876 -0.7947 0.5773
vn 0.4713 -0.6617 0.5831
vn 0.1876 -0.7947 0.5774
vn 0.1876 -0.7947 -0.5774
vn -0.7946 -0.1876 0.5774
vn -0.7946 -0.1876 -0.5774
vn 0.7946 0.1876 0.5774
vn 0.7946 0.1876 -0.5774
vn -0.1876 0.7947 0.5774
vn -0.1876 0.7947 -0.5774
vn -0.1876 -0.7947 -0.5774
vn -0.6071 -0.7947 -0.0000
vn 0.4911 -0.7947 -0.3568
vn 0.4911 -0.7947 0.3568
vn -0.1876 -0.7947 0.5774
vn -0.9822 -0.1876 -0.0000
vn -0.3035 -0.1876 -0.9342
vn 0.7946 -0.1876 -0.5774
vn 0.7946 -0.1876 0.5774
vn -0.3035 -0.1876 0.9342
vn -0.7946 0.1876 -0.5774
vn 0.3035 0.1876 -0.9342
vn 0.9822 0.1876 -0.0000
vn 0.3035 0.1876 0.9342
vn -0.7946 0.1876 0.5774
vn -0.4911 0.7947 -0.3568
vn 0.1876 0.7947 -0.5774
vn 0.6071 0.7947 -0.0000
vn 0.1876 0.7947 0.5774
vn -0.4911 0.7947 0.3568
vt 0.544562 0.382266
vt 0.610065 0.016678
vt 0.709647 0.016678
vt 0.775149 0.382266
vt 0.280620 0.385528
vt 0.317450 0.016678
vt 0.474638 0.016678
vt 0.511206 0.385528
vt 0.544562 0.780740
vt 0.610065 0.415623
vt 0.709647 0.415623
vt 0.775149 0.780740
vt 0.016678 0.385528
vt 0.053246 0.016678
vt 0.210434 0.016678
vt 0.247264 0.385528
vt 0.247265 0.418885
vt 0.247265 0.649472
vt 0.016678 0.649472
vt 0.016678 0.418885
vt 0.908088 0.685327
vt 0.908088 0.842516
vt 0.808506 0.842516
vt 0.808506 0.685327
vt 0.431862 0.516959
vt 0.382825 0.481332
vt 0.450592 0.459313
vt 0.967323 0.563213
vt 0.969294 0.615840
vt 0.919703 0.601806
vt 0.492475 0.516959
vt 0.450592 0.574605
vt 0.382825 0.552586
vt 0.919702 0.531542
vt 0.132162 0.833107
vt 0.070333 0.844063
vt 0.098541 0.784195
vt 0.862593 0.392101
vt 0.808506 0.370384
vt 0.857845 0.329719
vt 0.856030 0.166957
vt 0.808506 0.171191
vt 0.822067 0.113891
vt 0.971477 0.168401
vt 0.917859 0.177912
vt 0.957509 0.118893
vt 0.969294 0.502151
vt 0.166125 0.780041
vt 0.919328 0.365733
vt 0.889651 0.118045
vt 0.862837 0.624681
vt 0.808506 0.596742
vt 0.858288 0.567672
vt 0.064706 0.732698
vt 0.016678 0.722395
vt 0.075881 0.682829
vt 0.348435 0.681051
vt 0.401555 0.648390
vt 0.382825 0.706037
vt 0.967195 0.333449
vt 0.919329 0.295244
vt 0.969472 0.280129
vt 0.923486 0.066548
vt 0.861717 0.054872
vt 0.912311 0.016678
vt 0.862836 0.505142
vt 0.808506 0.526478
vt 0.839155 0.464888
vt 0.492475 0.741664
vt 0.450592 0.799310
vt 0.431862 0.741664
vt 0.511206 0.799310
vt 0.971514 0.056245
vt 0.382825 0.777291
vt 0.401555 0.834937
vt 0.348435 0.802276
vt 0.333788 0.741664
vt 0.862594 0.272177
vt 0.907989 0.244115
vt 0.450592 0.684018
vt 0.126475 0.721022
vt 0.511206 0.684018
vt 0.907878 0.468017
vt 0.808506 0.059481
vt 0.179686 0.725631
vt 0.030683 0.785043
vt 0.969472 0.394183
vt 0.907987 0.428657
vt 0.808506 0.299895
vt 0.179686 0.837342
vt 0.016715 0.834551
vt 0.401555 0.610233
vt 0.348435 0.577572
vt 0.867709 0.210758
vt 0.511206 0.574606
vt 0.463728 0.615034
vt 0.839496 0.431531
vt 0.511206 0.459313
vt 0.463728 0.418885
vt 0.907880 0.651970
vt 0.333788 0.516959
vt 0.120483 0.876908
vt 0.401555 0.423686
vt 0.348435 0.456347
vt 0.254291 0.722058
vt 0.213043 0.722058
vt 0.241544 0.682829
vt 0.241545 0.761287
vt 0.287662 0.697812
vt 0.287662 0.746302
vt 0.849846 0.890857
vt 0.849846 0.939347
vt 0.808633 0.915102
vt 0.058678 0.957271
vt 0.016678 0.976474
vt 0.017759 0.931450
vt 0.450169 0.907524
vt 0.449627 0.946753
vt 0.408778 0.931768
vt 0.449627 0.868294
vt 0.408778 0.883279
vt 0.255043 0.972667
vt 0.213043 0.953464
vt 0.253963 0.927644
vt 0.808506 0.875873
vt 0.058678 0.910265
vt 0.213043 0.906459
vt 0.808506 0.954331
vt 0.287662 0.809628
vt 0.287662 0.858119
vt 0.254291 0.833873
vt 0.241545 0.794644
vt 0.213043 0.833872
vt 0.241544 0.873102
vt 0.577933 0.853326
vt 0.619181 0.853325
vt 0.590680 0.892555
vt 0.590679 0.814097
vt 0.544562 0.877572
vt 0.544562 0.829081
vt 0.375421 0.883279
vt 0.375421 0.931768
vt 0.334330 0.907524
vt 0.133912 0.957306
vt 0.092035 0.976530
vt 0.092933 0.931559
vt 0.924487 0.915102
vt 0.924359 0.954331
vt 0.883203 0.939347
vt 0.924359 0.875873
vt 0.883203 0.890857
vt 0.983322 0.751591
vt 0.941445 0.732368
vt 0.982424 0.706621
vt 0.333788 0.868294
vt 0.133912 0.910265
vt 0.941445 0.685327
vt 0.333788 0.946753
vt 0.652538 0.877571
vt 0.652538 0.829080
vt 0.685908 0.853326
vt 0.698654 0.892555
vt 0.727156 0.853326
vt 0.698655 0.814097
s 0
usemtl Material.001
f 1/1/1 2/2/1 4/3/1 3/4/1
f 3/5/2 4/6/2 8/7/2 7/8/2
f 7/9/3 8/10/3 6/11/3 5/12/3
f 5/13/4 6/14/4 2/15/4 1/16/4
f 3/17/5 7/18/5 5/19/5 1/20/5
f 8/21/6 4/22/6 2/23/6 6/24/6
f 9/25/7 22/26/7 21/27/7
f 10/28/8 22/29/8 24/30/8
f 9/25/9 21/27/9 26/31/9
f 9/25/10 26/31/10 28/32/10
f 9/25/11 28/32/11 25/33/11
f 10/28/12 24/30/12 31/34/12
f 11/35/13 23/36/13 33/37/13
f 12/38/14 27/39/14 35/40/14
f 13/41/15 29/42/15 37/43/15
f 14/44/16 30/45/16 39/46/16
f 10/28/17 31/34/17 34/47/17
f 11/35/18 33/37/18 36/48/18
f 12/38/19 35/40/19 38/49/19
f 13/41/20 37/43/20 40/50/20
f 14/51/21 39/52/21 32/53/21
f 15/54/22 41/55/22 46/56/22
f 16/57/23 42/58/23 48/59/23
f 17/60/24 43/61/24 49/62/24
f 18/63/25 44/64/25 50/65/25
f 19/66/26 45/67/26 47/68/26
f 47/69/27 50/70/27 20/71/27
f 47/69/28 45/72/28 50/70/28
f 45/73/29 18/63/29 50/65/29
f 50/70/30 49/74/30 20/71/30
f 50/70/31 44/75/31 49/74/31
f 44/75/32 17/76/32 49/74/32
f 49/74/33 48/59/33 20/71/33
f 49/74/34 43/77/34 48/59/34
f 43/61/35 16/78/35 48/79/35
f 48/59/36 46/80/36 20/71/36
f 48/59/37 42/58/37 46/80/37
f 42/81/38 15/54/38 46/56/38
f 46/80/39 47/69/39 20/71/39
f 46/80/40 41/82/40 47/69/40
f 41/83/41 19/66/41 47/68/41
f 32/53/42 45/67/42 19/66/42
f 32/53/43 39/52/43 45/67/43
f 39/46/44 18/63/44 45/73/44
f 40/50/45 44/64/45 18/63/45
f 40/50/46 37/43/46 44/64/46
f 37/43/47 17/84/47 44/64/47
f 38/49/48 43/61/48 17/60/48
f 38/49/49 35/40/49 43/61/49
f 35/40/50 16/78/50 43/61/50
f 36/48/51 42/81/51 16/85/51
f 36/48/52 33/37/52 42/81/52
f 33/37/53 15/54/53 42/81/53
f 34/86/54 41/55/54 15/54/54
f 34/47/55 31/34/55 41/83/55
f 31/34/56 19/66/56 41/83/56
f 39/46/57 40/50/57 18/63/57
f 39/46/58 30/45/58 40/50/58
f 30/45/59 13/41/59 40/50/59
f 37/87/60 38/49/60 17/60/60
f 37/87/61 29/88/61 38/49/61
f 29/88/62 12/38/62 38/49/62
f 35/40/63 36/89/63 16/78/63
f 35/40/64 27/39/64 36/89/64
f 27/90/65 11/35/65 36/48/65
f 33/37/66 34/86/66 15/54/66
f 33/37/67 23/36/67 34/86/67
f 23/36/68 10/91/68 34/86/68
f 31/34/69 32/53/69 19/66/69
f 31/34/70 24/30/70 32/53/70
f 24/30/71 14/51/71 32/53/71
f 25/33/72 30/92/72 14/93/72
f 25/33/73 28/32/73 30/92/73
f 28/94/74 13/41/74 30/45/74
f 28/32/75 29/95/75 13/96/75
f 28/32/76 26/31/76 29/95/76
f 26/97/77 12/38/77 29/88/77
f 26/97/78 27/39/78 12/38/78
f 26/31/79 21/27/79 27/98/79
f 21/27/80 11/99/80 27/98/80
f 24/30/81 25/100/81 14/51/81
f 24/101/82 22/26/82 25/33/82
f 22/26/83 9/25/83 25/33/83
f 21/102/84 23/36/84 11/35/84
f 21/27/85 22/26/85 23/103/85
f 22/26/86 10/104/86 23/103/86
f 51/105/87 52/106/87 53/107/87
f 52/106/82 51/105/82 56/108/82
f 51/105/79 53/107/79 54/109/79
f 51/105/76 54/109/76 55/110/76
f 51/105/88 55/110/88 56/108/88
f 52/111/70 56/112/70 61/113/70
f 53/114/67 52/115/67 57/116/67
f 54/117/89 53/118/89 58/119/89
f 55/120/90 54/117/90 59/121/90
f 56/122/58 55/123/58 60/124/58
f 52/111/91 61/113/91 57/125/91
f 53/114/52 57/116/52 58/126/52
f 54/117/49 58/119/49 59/121/49
f 55/123/46 59/127/46 60/124/46
f 56/112/92 60/128/92 61/113/92
f 57/129/40 61/130/40 62/131/40
f 58/132/93 57/129/93 62/131/93
f 59/133/34 58/132/34 62/131/34
f 60/134/94 59/133/94 62/131/94
f 61/130/28 60/134/28 62/131/28
f 63/135/95 64/136/95 65/137/95
f 64/136/96 63/135/96 68/138/96
f 63/135/97 65/137/97 66/139/97
f 63/135/98 66/139/98 67/140/98
f 63/135/99 67/140/99 68/138/99
f 64/141/100 68/142/100 73/143/100
f 65/144/101 64/145/101 69/146/101
f 66/147/102 65/148/102 70/149/102
f 67/150/103 66/147/103 71/151/103
f 68/152/104 67/153/104 72/154/104
f 64/141/105 73/143/105 69/155/105
f 65/144/106 69/146/106 70/156/106
f 66/147/107 70/149/107 71/151/107
f 67/153/108 71/157/108 72/154/108
f 68/142/109 72/158/109 73/143/109
f 69/159/110 73/160/110 74/161/110
f 70/162/111 69/159/111 74/161/111
f 71/163/112 70/162/112 74/161/112
f 72/164/113 71/163/113 74/161/113
f 73/160/114 72/164/114 74/161/114
