# Blender 4.5.3 LTS
# www.blender.org
mtllib plant_0.mtl
o Icosphere
v 0.000000 -0.200000 0.000000
v 0.144720 -0.089443 0.105144
v -0.055277 -0.089443 0.170128
v -0.178885 -0.089443 0.000000
v -0.055277 -0.089443 -0.170128
v 0.144720 -0.089443 -0.105144
v 0.025393 0.037016 0.156898
v -0.153859 0.063337 0.054534
v -0.177414 0.035022 -0.106043
v 0.046222 0.078528 -0.151157
v 0.163161 0.064603 0.005732
v 0.000000 0.020792 -0.000000
v -0.026689 -0.003677 0.009460
v -0.024116 -0.010570 -0.014414
v 0.006152 -0.004475 0.038014
v 0.007775 -0.001548 -0.025427
v 0.025114 -0.005067 0.000882
v -0.001914 0.001392 -0.031312
vn 0.1876 -0.7947 0.5774
vn 0.6071 -0.7947 -0.0000
vn -0.4911 -0.7947 0.3568
vn -0.4911 -0.7947 -0.3568
vn 0.1876 -0.7947 -0.5774
vn 0.9929 -0.1189 -0.0000
vn 0.3076 -0.0972 0.9466
vn -0.8066 -0.0771 0.5860
vn -0.7261 -0.4409 -0.5276
vn 0.3081 -0.0791 -0.9481
vn 0.6596 0.3502 0.6650
vn -0.4231 0.3570 0.8328
vn -0.9854 0.1172 0.1239
vn -0.2379 0.2498 -0.9386
vn 0.7765 0.3042 -0.5518
vn -0.4315 0.8712 -0.2342
vn 0.3327 0.8723 -0.3583
vn 0.3944 0.8933 -0.2154
vn -0.0598 0.8501 0.5231
vn -0.0598 0.8501 0.5232
vn -0.4258 0.8165 0.3898
vn -0.7010 0.6615 -0.2665
vn -0.3865 0.7944 -0.4685
vn -0.3865 0.7944 -0.4686
vn -0.3866 0.7944 -0.4686
vn 0.6756 0.6439 -0.3591
vn 0.6710 0.6630 0.3321
vn -0.4548 0.7060 0.5429
vn -0.0599 0.8501 0.5231
vn -0.0599 0.8501 0.5232
vn -0.3866 0.7944 -0.4685
vt 0.481969 0.327613
vt 0.302579 0.400962
vt 0.276406 0.208932
vt 0.203002 0.023615
vt 0.229177 0.215646
vt 0.023615 0.096964
vt 0.481969 0.090248
vt 0.203004 0.407678
vt 0.023614 0.334327
vt 0.953246 0.640656
vt 0.753393 0.512598
vt 0.953246 0.432670
vt 0.023615 0.746741
vt 0.023614 0.509378
vt 0.167033 0.655527
vt 0.366823 0.023614
vt 0.706164 0.635943
vt 0.640318 0.810254
vt 0.539292 0.762943
vt 0.706164 0.432670
vt 0.529198 0.500984
vt 0.186926 0.454907
vt 0.904259 0.915778
vt 0.753393 0.866268
vt 0.904259 0.687885
vt 0.106794 0.976386
vt 0.023615 0.906875
vt 0.106794 0.793970
vt 0.779879 0.215673
vt 0.779879 0.023615
vt 0.954476 0.159659
vt 0.543358 0.380755
vt 0.715773 0.290078
vt 0.732650 0.385441
vt 0.433395 0.560317
vt 0.313273 0.713731
vt 0.302362 0.666302
vt 0.276406 0.655874
vt 0.286220 0.448191
vt 0.681024 0.230708
vt 0.679900 0.243678
vt 0.529198 0.165018
vt 0.684670 0.278236
vt 0.301927 0.877686
vt 0.285284 0.879857
vt 0.276406 0.839727
vt 0.306063 0.847313
vt 0.310937 0.839727
vt 0.811856 0.303861
vt 0.779879 0.319574
vt 0.779879 0.281075
vt 0.815071 0.262902
vt 0.191079 0.814083
vt 0.154023 0.845879
vt 0.154023 0.793970
vt 0.433395 0.792498
vt 0.732650 0.023614
vt 0.713405 0.227510
s 1
usemtl Material.003
f 1/1/1 2/2/1 3/3/1
f 2/4/2 1/5/2 6/6/2
f 1/1/3 3/3/3 4/7/3
f 1/5/4 4/8/4 5/9/4
f 1/5/5 5/9/5 6/6/5
f 2/10/6 6/11/6 11/12/6
f 3/13/7 2/14/7 7/15/7
f 4/7/8 3/3/8 8/16/8
f 5/17/9 4/18/9 9/19/9
f 6/20/10 5/17/10 10/21/10
f 2/14/11 11/22/11 7/15/11
f 3/23/12 7/24/12 8/25/12
f 4/26/13 8/27/13 9/28/13
f 5/17/14 9/19/14 10/21/14
f 6/29/15 10/30/15 11/31/15
f 11/32/16 15/33/16 7/34/16
f 8/35/17 15/36/17 13/37/17
f 8/35/18 14/38/18 9/39/18
f 18/40/19 16/41/20 10/42/19
f 11/32/21 16/41/21 17/43/21
f 14/44/22 13/45/22 12/46/22
f 18/47/23 12/46/24 16/48/25
f 17/49/26 16/50/26 12/51/26
f 15/52/27 17/49/27 12/51/27
f 13/53/28 15/54/28 12/55/28
f 11/32/16 17/43/16 15/33/16
f 8/35/17 7/56/17 15/36/17
f 8/35/18 13/37/18 14/38/18
f 10/42/19 9/57/29 18/40/19
f 9/57/29 14/58/30 18/40/19
f 11/32/21 10/42/21 16/41/21
f 18/47/23 14/44/31 12/46/24
