# Blender 4.5.3 LTS
# www.blender.org
mtllib plant_2.mtl
o Icosphere
v 0.000000 -0.300000 0.000000
v 0.217080 -0.134164 0.157716
v -0.082915 -0.134164 0.255192
v -0.268328 -0.134164 0.000000
v -0.082915 -0.134165 -0.255192
v 0.217080 -0.134165 -0.157716
v 0.038089 0.055524 0.235347
v -0.230788 0.095006 0.081801
v -0.266121 0.052533 -0.159065
v 0.069333 0.117792 -0.226736
v 0.244741 0.096905 0.008598
v -0.040034 -0.005515 0.014190
v -0.036174 -0.015855 -0.021621
v 0.009228 -0.006712 0.057021
v 0.011662 -0.002322 -0.038141
v 0.037671 -0.007601 0.001323
v -0.002871 0.002088 -0.046968
v -0.080450 0.868988 0.032904
v -0.031189 0.867791 0.075735
v -0.028754 0.872182 -0.019426
v -0.043288 0.876592 -0.028254
v -0.002746 0.866903 0.020037
v -0.076591 0.858649 -0.002907
v -0.097277 1.233056 0.040696
v -0.048015 1.231859 0.083527
v -0.045581 1.236249 -0.011635
v -0.060114 1.240659 -0.020462
v -0.019572 1.230971 0.027829
v -0.093417 1.222716 0.004885
v -0.071499 1.071381 -0.009604
v -0.067221 1.041839 -0.012433
v -0.079743 1.041013 -0.002981
v -0.057484 1.042482 -0.019781
v -0.060736 0.868509 0.050045
v -0.048780 0.868219 0.060441
v -0.050406 0.899521 0.060954
v -0.068648 0.844766 0.041690
v -0.047573 0.844969 0.060058
v -0.020173 0.974472 0.046757
v -0.012656 0.987023 0.031152
v -0.010829 0.951324 0.030042
v -0.027606 0.847336 -0.019958
v -0.025756 0.807296 -0.020815
v -0.007993 0.832458 0.008794
v -0.230540 1.068546 -0.220573
v -0.226262 1.039004 -0.223401
v -0.238784 1.038177 -0.213949
v -0.216525 1.039647 -0.230749
v 0.260768 0.864681 -0.207691
v 0.262619 0.824641 -0.208548
v 0.280381 0.849803 -0.178939
v 0.184789 0.981707 0.151308
v 0.192305 0.994258 0.135704
v 0.194132 0.958559 0.134593
v -0.318701 0.850248 0.346229
v -0.306744 0.849958 0.356625
v -0.308370 0.881260 0.357138
v -0.326613 0.826505 0.337874
v -0.305538 0.826708 0.356242
vn 0.1876 -0.7947 0.5774
vn 0.6071 -0.7947 -0.0000
vn -0.4911 -0.7947 0.3568
vn -0.4911 -0.7947 -0.3568
vn 0.1876 -0.7947 -0.5774
vn 0.9929 -0.1189 -0.0000
vn 0.3076 -0.0972 0.9466
vn -0.8066 -0.0771 0.5860
vn -0.7261 -0.4409 -0.5276
vn 0.3081 -0.0791 -0.9481
vn 0.6596 0.3502 0.6650
vn -0.4231 0.3570 0.8328
vn -0.9854 0.1172 0.1239
vn -0.2379 0.2498 -0.9386
vn 0.7765 0.3042 -0.5518
vn -0.4315 0.8712 -0.2342
vn 0.3327 0.8723 -0.3583
vn 0.3944 0.8933 -0.2154
vn -0.0598 0.8501 0.5231
vn -0.0598 0.8501 0.5232
vn -0.4258 0.8165 0.3898
vn -0.0581 0.0187 -0.9981
vn 0.4954 0.3011 -0.8148
vn 0.5747 -0.1859 -0.7970
vn -0.0599 0.8501 0.5231
vn -0.0599 0.8501 0.5232
vn 0.7201 0.0481 -0.6922
vn 0.9968 0.0474 -0.0636
vn 0.9981 0.0470 -0.0399
vn -0.9414 -0.0506 0.3335
vn 0.0827 -0.5937 0.8004
vn -0.8810 -0.4698 -0.0568
vn -0.8695 -0.0296 -0.4930
vn -0.8766 -0.0302 -0.4802
vn -0.0247 0.0202 -0.9995
vn 0.2275 -0.0103 0.9737
vn 0.1528 -0.0141 0.9882
vn -0.6541 0.0604 0.7540
vn 0.8896 0.0555 0.4534
vn 0.8370 0.0503 -0.5449
vn -0.9414 -0.0506 0.3336
vn -0.9084 -0.0509 0.4151
vn 0.2538 -0.3965 -0.8822
vn 0.6797 0.0471 -0.7320
vn 0.2274 -0.0103 0.9737
vn 0.9112 0.1217 0.3937
vn -0.6258 0.0634 -0.7774
vn -0.9903 0.0620 -0.1246
vn 0.5321 0.0632 -0.8443
vn -0.2474 0.7967 0.5514
vn -0.8628 -0.5037 -0.0437
vn 0.1392 0.1212 0.9828
vn -0.3914 -0.7137 -0.5810
vn -0.4043 0.8253 -0.3943
vn -0.6056 0.2272 -0.7627
vn 0.2538 -0.3965 -0.8823
vn -0.9459 0.3236 -0.0241
vn -0.9459 0.3237 -0.0241
vn -0.8810 -0.4697 -0.0568
vn -0.9437 0.2312 0.2367
vn 0.9032 0.2760 0.3287
vn 0.9099 -0.1296 0.3940
vn 0.9112 0.1217 0.3936
vn 0.1880 0.7179 -0.6703
vn 0.2883 -0.7164 -0.6353
vn 0.6347 0.7686 -0.0799
vn 0.6441 -0.7649 -0.0128
vn 0.0835 -0.0120 0.9964
vn 0.0539 -0.0136 0.9985
vn 0.0835 -0.0121 0.9964
vn -0.9437 0.2311 0.2366
vt 0.428631 0.518260
vt 0.281477 0.571811
vt 0.289567 0.433609
vt 0.410251 0.027331
vt 0.428631 0.162176
vt 0.284284 0.078837
vt 0.428631 0.351684
vt 0.410253 0.297022
vt 0.284284 0.245515
vt 0.148294 0.468234
vt 0.148294 0.609764
vt 0.027331 0.546827
vt 0.138510 0.340931
vt 0.042415 0.386810
vt 0.281477 0.829578
vt 0.281477 0.666346
vt 0.402400 0.786213
vt 0.027331 0.818574
vt 0.060294 0.664426
vt 0.146165 0.732862
vt 0.879271 0.804750
vt 0.883329 0.950879
vt 0.749709 0.893240
vt 0.382654 0.626473
vt 0.380949 0.885644
vt 0.146165 0.902182
vt 0.749709 0.738834
vt 0.205368 0.027331
vt 0.135047 0.101098
vt 0.066486 0.027331
vt 0.027331 0.187548
vt 0.134482 0.135589
vt 0.150870 0.146649
vt 0.112095 0.286269
vt 0.166772 0.142819
vt 0.169191 0.133943
vt 0.229622 0.179721
vt 0.695047 0.742727
vt 0.633606 0.846073
vt 0.632550 0.821723
vt 0.661866 0.682546
vt 0.670483 0.235691
vt 0.670483 0.256873
vt 0.164420 0.109700
vt 0.695047 0.895419
vt 0.670483 0.222548
vt 0.695047 0.032850
vt 0.695047 0.225445
vt 0.572739 0.028632
vt 0.594989 0.477288
vt 0.580221 0.477467
vt 0.483293 0.684732
vt 0.495532 0.228287
vt 0.495532 0.690918
vt 0.518077 0.682562
vt 0.518077 0.219931
vt 0.782592 0.682450
vt 0.749709 0.221620
vt 0.782592 0.219898
vt 0.670483 0.685168
vt 0.695047 0.688065
vt 0.937991 0.947706
vt 0.937991 0.913210
vt 0.967501 0.921331
vt 0.572739 0.490403
vt 0.607204 0.681343
vt 0.572739 0.682644
vt 0.518077 0.027331
vt 0.513764 0.131954
vt 0.483293 0.222101
vt 0.495532 0.035688
vt 0.661866 0.219926
vt 0.670483 0.029953
vt 0.749709 0.029054
vt 0.782592 0.027331
vt 0.607204 0.027331
vt 0.607204 0.489101
vt 0.749709 0.684172
vt 0.688526 0.243639
vt 0.970395 0.954406
vt 0.954558 0.958496
vt 0.972669 0.945492
vt 0.594771 0.506097
vt 0.499017 0.131988
vt 0.483293 0.029501
vt 0.661866 0.027331
vt 0.764130 0.164174
vt 0.287451 0.943437
vt 0.295134 0.940306
vt 0.295134 0.957292
vt 0.920780 0.288040
vt 0.936907 0.424247
vt 0.920780 0.425238
vt 0.555522 0.746449
vt 0.571374 0.884388
vt 0.555522 0.885257
vt 0.866160 0.232387
vt 0.849789 0.028799
vt 0.866160 0.030715
vt 0.849789 0.230471
vt 0.837254 0.027331
vt 0.754755 0.157893
vt 0.920822 0.148337
vt 0.936634 0.027475
vt 0.936634 0.148481
vt 0.859237 0.550395
vt 0.837254 0.679060
vt 0.837254 0.546862
vt 0.281477 0.945871
vt 0.919536 0.547983
vt 0.913899 0.677296
vt 0.913899 0.546862
vt 0.926786 0.549425
vt 0.919536 0.678417
vt 0.555522 0.939919
vt 0.573565 0.947866
vt 0.555522 0.961100
vt 0.500860 0.749858
vt 0.483293 0.908401
vt 0.483293 0.745580
vt 0.224138 0.340942
vt 0.202956 0.522880
vt 0.202956 0.340931
vt 0.349796 0.940306
vt 0.361080 0.940306
vt 0.360141 0.956114
vt 0.221853 0.926176
vt 0.202956 0.811794
vt 0.221853 0.811745
vt 0.937991 0.856185
vt 0.944856 0.741197
vt 0.944856 0.858548
vt 0.935350 0.215419
vt 0.935023 0.231948
vt 0.926981 0.215633
vt 0.935591 0.203143
vt 0.853817 0.492166
vt 0.866118 0.287129
vt 0.866118 0.492200
vt 0.837254 0.492120
vt 0.853817 0.287095
vt 0.202956 0.757083
vt 0.217114 0.577553
vt 0.217114 0.754885
vt 0.594896 0.489566
vt 0.586531 0.489882
vt 0.507313 0.131969
vt 0.505389 0.116244
vt 0.754550 0.176783
vt 0.936907 0.287049
vt 0.571374 0.745580
vt 0.837254 0.229003
vt 0.920822 0.027331
vt 0.859237 0.682594
vt 0.926786 0.679859
vt 0.500860 0.912679
vt 0.224138 0.522891
vt 0.202956 0.926225
vt 0.937991 0.738834
vt 0.920822 0.203143
vt 0.837254 0.287049
vt 0.202956 0.579751
s 1
usemtl Material.002
f 1/1/1 2/2/1 3/3/1
f 2/4/2 1/5/2 6/6/2
f 1/1/3 3/3/3 4/7/3
f 1/5/4 4/8/4 5/9/4
f 1/5/5 5/9/5 6/6/5
f 2/10/6 6/11/6 11/12/6
f 3/13/7 2/10/7 7/14/7
f 4/15/8 3/16/8 8/17/8
f 5/18/9 4/19/9 9/20/9
f 6/21/10 5/22/10 10/23/10
f 2/10/11 11/12/11 7/14/11
f 3/16/12 7/24/12 8/17/12
f 4/15/13 8/17/13 9/25/13
f 5/18/14 9/20/14 10/26/14
f 6/21/15 10/23/15 11/27/15
f 11/28/16 14/29/16 7/30/16
f 8/31/17 14/29/17 12/32/17
f 8/31/18 13/33/18 9/34/18
f 17/35/19 15/36/20 10/37/19
f 11/38/21 15/39/21 16/40/21
f 17/41/22 42/42/23 43/43/24
f 11/28/16 16/44/16 14/29/16
f 8/31/17 7/30/17 14/29/17
f 8/31/18 12/32/18 13/33/18
f 10/37/19 9/34/25 17/35/19
f 9/34/25 13/33/26 17/35/19
f 11/38/21 10/45/21 15/39/21
f 20/46/27 28/47/28 22/48/29
f 12/49/30 38/50/31 37/51/32
f 12/52/30 23/53/33 13/54/34
f 17/55/22 23/53/33 21/56/35
f 14/57/36 22/58/28 19/59/37
f 15/60/27 22/48/28 16/61/29
f 24/62/38 25/63/39 28/64/40
f 18/65/41 25/66/37 24/67/42
f 27/68/35 21/56/22 33/69/43
f 18/70/41 29/71/33 23/53/34
f 21/72/22 26/73/44 20/46/27
f 19/59/45 28/74/28 25/75/37
f 17/41/22 21/72/35 20/46/44
f 20/46/27 26/73/44 28/47/28
f 12/49/30 14/76/36 19/77/37
f 12/52/30 18/70/42 23/53/33
f 17/55/22 13/54/34 23/53/33
f 14/57/36 16/78/29 22/58/28
f 22/48/28 15/60/27 44/79/46
f 27/80/47 29/81/48 26/82/49
f 29/81/48 24/62/38 28/64/40
f 26/82/49 29/81/48 28/64/40
f 36/83/50 19/77/45 25/66/37
f 23/53/34 29/71/33 32/84/51
f 18/70/41 24/85/42 29/71/33
f 21/72/22 27/86/35 26/73/44
f 19/59/45 39/87/52 28/74/28
f 46/88/53 47/89/51 45/90/54
f 32/91/51 45/92/54 47/93/51
f 30/94/55 48/95/56 45/96/54
f 36/97/50 55/98/57 57/99/50
f 34/100/58 58/101/59 55/98/60
f 40/102/61 22/58/29 28/74/28
f 41/103/62 52/104/52 39/105/52
f 43/106/24 51/107/63 44/108/46
f 45/90/54 48/109/56 46/88/53
f 31/110/53 48/111/56 33/112/43
f 32/113/51 46/114/53 31/110/53
f 49/115/64 51/116/63 50/117/65
f 44/118/46 49/119/64 42/120/23
f 42/121/23 50/122/65 43/123/24
f 53/124/66 52/125/52 54/126/67
f 41/127/62 53/128/66 54/129/67
f 39/130/52 53/131/66 40/132/61
f 56/133/68 57/134/50 55/135/57
f 55/135/60 59/136/31 56/133/69
f 35/137/70 59/138/31 38/139/31
f 36/140/50 56/141/68 35/137/69
f 38/142/31 58/143/59 37/144/32
f 17/41/22 20/46/44 42/42/23
f 43/43/24 15/60/27 17/41/22
f 19/77/37 35/145/70 38/50/31
f 37/51/32 34/146/58 18/65/42
f 12/49/30 19/77/37 38/50/31
f 37/51/32 18/65/42 12/49/30
f 21/56/22 31/147/53 33/69/43
f 33/69/43 30/148/55 27/68/35
f 30/148/55 29/71/33 27/68/35
f 15/60/27 43/43/24 44/79/46
f 44/79/46 42/42/23 22/48/28
f 42/42/23 20/46/44 22/48/28
f 25/66/37 18/65/41 36/83/50
f 18/65/41 34/146/71 36/83/50
f 36/83/50 35/145/69 19/77/45
f 31/147/53 21/56/22 32/84/51
f 21/56/22 23/53/34 32/84/51
f 29/71/33 30/148/55 32/84/51
f 19/59/45 22/58/29 41/149/62
f 39/87/52 40/102/61 28/74/28
f 19/59/45 41/149/62 39/87/52
f 32/91/51 30/150/55 45/92/54
f 30/94/55 33/151/43 48/95/56
f 36/97/50 34/100/71 55/98/57
f 34/100/58 37/152/32 58/101/59
f 40/102/61 41/149/62 22/58/29
f 41/103/62 54/153/67 52/104/52
f 43/106/24 50/154/65 51/107/63
f 31/110/53 46/114/53 48/111/56
f 32/113/51 47/155/51 46/114/53
f 44/118/46 51/156/63 49/119/64
f 42/121/23 49/157/64 50/122/65
f 41/127/62 40/158/61 53/128/66
f 39/130/52 52/159/52 53/131/66
f 55/135/60 58/160/59 59/136/31
f 35/137/70 56/141/69 59/138/31
f 36/140/50 57/161/50 56/141/68
f 38/142/31 59/162/31 58/143/59
