# Blender 4.5.3 LTS
# www.blender.org
mtllib seed_pack.mtl
o Cube
v -0.155869 -0.002430 0.000000
v -0.155869 0.470053 -0.000000
v 0.155869 -0.002430 0.000000
v 0.155869 0.470053 -0.000000
v -0.155869 0.351932 0.009325
v -0.155869 0.351932 -0.009325
v 0.155869 0.351932 -0.009325
v 0.155869 0.351932 0.009325
v -0.155869 0.115595 -0.009325
v 0.155869 0.115595 -0.009325
v 0.155869 0.115595 0.009325
v -0.155869 0.115595 0.009325
v -0.155869 0.233763 -0.030424
v -0.155869 0.233763 0.030424
v 0.155869 0.233763 0.030424
v 0.155869 0.233763 -0.030424
vn -0.0000 0.0787 -0.9969
vn 1.0000 -0.0000 -0.0000
vn -0.0000 0.0787 0.9969
vn -0.0000 -0.0000 -1.0000
vn -0.0000 -0.1758 -0.9844
vn -1.0000 -0.0000 -0.0000
vn -0.0000 -0.0788 -0.9969
vn -0.0000 -0.0788 0.9969
vn -0.0000 0.1758 -0.9844
vn -0.0000 0.1758 0.9844
vn -0.0000 -0.0000 1.0000
vn -0.0000 -0.1758 0.9844
vt 0.756244 0.012869
vt 0.756244 0.138773
vt 0.397426 0.138773
vt 0.397426 0.012869
vt 0.942278 0.525925
vt 0.897426 0.397766
vt 0.987131 0.397766
vt 0.371688 0.012869
vt 0.371688 0.141130
vt 0.012869 0.141130
vt 0.012869 0.012869
vt 0.756244 0.266934
vt 0.756244 0.395095
vt 0.397426 0.395095
vt 0.397426 0.266934
vt 0.826835 0.525925
vt 0.781983 0.397766
vt 0.871688 0.397766
vt 0.987131 0.141133
vt 0.987131 0.269450
vt 0.897426 0.269450
vt 0.897426 0.141133
vt 0.942278 0.012869
vt 0.397426 0.525305
vt 0.756244 0.525305
vt 0.871688 0.141133
vt 0.781983 0.141133
vt 0.826835 0.012869
vt 0.781983 0.269450
vt 0.871688 0.269450
vt 0.371688 0.397762
vt 0.371688 0.525925
vt 0.012869 0.525925
vt 0.012869 0.397762
vt 0.371688 0.269446
vt 0.012869 0.269446
s 1
usemtl Material.001
f 4/1/1 7/2/1 6/3/1 2/4/1
f 3/5/2 10/6/2 11/7/2
f 2/8/3 5/9/3 8/10/3 4/11/3
f 16/12/4 10/13/5 9/14/5 13/15/4
f 1/16/6 12/17/6 9/18/6
f 8/19/2 15/20/2 16/21/2 7/22/2
f 8/19/2 7/22/2 4/23/2
f 1/24/7 9/14/7 10/13/7 3/25/7
f 6/26/6 5/27/6 2/28/6
f 12/17/6 14/29/6 13/30/6 9/18/6
f 12/31/8 1/32/8 3/33/8 11/34/8
f 7/2/9 16/12/4 13/15/4 6/3/9
f 5/9/10 14/35/11 15/36/11 8/10/10
f 15/20/2 11/7/2 10/6/2 16/21/2
f 13/30/6 14/29/6 5/27/6 6/26/6
f 15/36/11 14/35/11 12/31/12 11/34/12
